<svg xmlns="http://www.w3.org/2000/svg" viewBox="0 0 92.3999 43.55957"><title>bne</title><g id="Layer_2" data-name="Layer 2"><g id="Layer_1-2" data-name="Layer 1"><path d="M0,0H2.22021V18.54h.12012a9.71028,9.71028,0,0,1,1.86426-3.15039,11.69007,11.69007,0,0,1,2.7666-2.27979A12.44526,12.44526,0,0,1,10.33887,11.73a15.33683,15.33683,0,0,1,3.72949-.4502A13.55075,13.55075,0,0,1,19.99219,12.48a11.89917,11.89917,0,0,1,4.17969,3.2998,13.9681,13.9681,0,0,1,2.49658,4.89014A21.52509,21.52509,0,0,1,27.48,26.69971a21.78475,21.78475,0,0,1-1.50342,8.8501,14.1292,14.1292,0,0,1-3.60889,5.1001,10.94227,10.94227,0,0,1-4.39014,2.34033,16.63282,16.63282,0,0,1-3.90918.56934,12.65286,12.65286,0,0,1-5.20313-.96,12.78081,12.78081,0,0,1-3.51855-2.25,11.12017,11.12017,0,0,1-2.10449-2.5498,10.2068,10.2068,0,0,1-.90186-1.85986H2.22217v6.8999H0ZM14.0708,41.58008a9.55541,9.55541,0,0,0,5.17334-1.32031,10.653,10.653,0,0,0,3.4292-3.44971,15.45481,15.45481,0,0,0,1.9248-4.80029,24.06847,24.06847,0,0,0,.60205-5.31006,17.90663,17.90663,0,0,0-.69189-4.98,13.21706,13.21706,0,0,0-2.10547-4.29,10.81561,10.81561,0,0,0-3.48975-3.02979,9.9066,9.9066,0,0,0-4.84229-1.14014,12.46954,12.46954,0,0,0-5.23389,1.02,9.9187,9.9187,0,0,0-3.66943,2.81982A12.21746,12.21746,0,0,0,3.002,21.35986a18.87311,18.87311,0,0,0-.72168,5.33984,23.08529,23.08529,0,0,0,.66162,5.52,14.47128,14.47128,0,0,0,2.07568,4.77,10.75983,10.75983,0,0,0,3.63916,3.33008A10.83359,10.83359,0,0,0,14.0708,41.58008Z"/><path d="M32.81982,12H35.1001v6.59961h.11963a9.87391,9.87391,0,0,1,1.71045-3.08984,11.35361,11.35361,0,0,1,5.78955-3.75,13.263,13.263,0,0,1,3.54053-.48,14.0094,14.0094,0,0,1,4.58984.66016,9.00574,9.00574,0,0,1,3.08984,1.73975,8.45021,8.45021,0,0,1,1.89063,2.43018,11.32429,11.32429,0,0,1,.99023,2.73,16.29435,16.29435,0,0,1,.35938,2.66992c.03906.86084.06055,1.61084.06055,2.25V42.83984H54.95947v-19.5A28.64325,28.64325,0,0,0,54.77979,20.46,8.74355,8.74355,0,0,0,53.729,17.12988a7.62624,7.62624,0,0,0-2.63867-2.73,8.99274,8.99274,0,0,0-4.89062-1.14014,10.87886,10.87886,0,0,0-4.67969.96,10.14565,10.14565,0,0,0-3.48,2.66992,11.75642,11.75642,0,0,0-2.18994,4.08008,17.103,17.103,0,0,0-.75,5.18994V42.83984H32.81982Z"/><path d="M91.14014,9.41992a8.32756,8.32756,0,0,0-1.71-3.21,11.092,11.092,0,0,0-2.12988-1.89014,8.80908,8.80908,0,0,0-3.36035-1.3501,19.78537,19.78537,0,0,0-3.12012-.27c-.44043,0-1,.021-1.67969.06006a10.89882,10.89882,0,0,0-2.21973.39014,13.96194,13.96194,0,0,0-2.52051.98975,9.1878,9.1878,0,0,0-2.51953,1.92041,10.60679,10.60679,0,0,0-1.77051,2.36963,20.18857,20.18857,0,0,0-2.12988,5.79A26.82408,26.82408,0,0,0,67.56006,17.04H87.48l-.89941,1.98H67.38037q-.06152.78-.08984,1.52979c-.02148.50049-.03027.99023-.03027,1.47021s.00879.95068.03027,1.40967q.0293.69067.08984,1.3501H84.35986l-.89941,1.98H67.61963a26.28659,26.28659,0,0,0,1.02051,4.91992,16.80124,16.80124,0,0,0,2.21973,4.68018A11.61744,11.61744,0,0,0,73.43994,39.21,10.89058,10.89058,0,0,0,76.17041,40.77a11.04265,11.04265,0,0,0,2.60938.65967,19.32475,19.32475,0,0,0,2.28027.15039,18.21947,18.21947,0,0,0,2.87988-.24023,13.86426,13.86426,0,0,0,2.87988-.77979A14.25656,14.25656,0,0,0,89.34033,39.21a12.947,12.947,0,0,0,2.58008-2.31006v2.75977a14.44859,14.44859,0,0,1-1.83008,1.43994,10.77117,10.77117,0,0,1-2.31055,1.14014,15.81254,15.81254,0,0,1-3.41992.98975,20.63253,20.63253,0,0,1-3.59961.33008,15.09162,15.09162,0,0,1-6.83984-1.49951,13.06835,13.06835,0,0,1-4.98047-4.38037A18.6466,18.6466,0,0,1,66.39014,32.46a26.40016,26.40016,0,0,1-1.16992-5.7002H61.31982l.90039-1.98H65.1001a27.667,27.667,0,0,1,0-5.75977H61.31982l.90039-1.98h3a24.59054,24.59054,0,0,1,1.55957-6.87012,17.43216,17.43216,0,0,1,1.68066-3.27,13.25639,13.25639,0,0,1,2.39941-2.76025A12.97705,12.97705,0,0,1,73.6499,2.25a13.92837,13.92837,0,0,1,2.73047-1.02,15.042,15.042,0,0,1,2.46-.41992Q79.97852.72,80.81982.71973a23.4324,23.4324,0,0,1,3.83984.33008A10.13674,10.13674,0,0,1,88.43994,2.52,11.24351,11.24351,0,0,1,90.6001,4.29a8.9238,8.9238,0,0,1,1.7998,2.84961Z"/></g></g></svg>