<svg xmlns="http://www.w3.org/2000/svg" xmlns:xlink="http://www.w3.org/1999/xlink" viewBox="0 0 20.799 15.99903"><defs><style>.cls-1{fill:none;}.cls-2{clip-path:url(#clip-path);}</style><clipPath id="clip-path" transform="translate(0 -0.00097)"><rect class="cls-1" width="21" height="16"/></clipPath></defs><title>check</title><g id="Layer_2" data-name="Layer 2"><g id="Layer_1-2" data-name="Layer 1"><g class="cls-2"><path d="M.238,8.801A.86794.86794,0,0,1,0,8.238.85627.85627,0,0,1,.238,7.68L1.359,6.559a.77285.77285,0,0,1,1.121,0l.079.082,4.402,4.718a.38383.38383,0,0,0,.559,0L18.238.238h.082a.78124.78124,0,0,1,1.121,0l1.118,1.121a.77449.77449,0,0,1,0,1.121L7.762,15.762a.77895.77895,0,0,1-1.121,0L.398,9.039Zm0,0" transform="translate(0 -0.00097)"/></g></g></g></svg>